<?xml version="1.0" standalone="no"?>
<!DOCTYPE svg PUBLIC "-//W3C//DTD SVG 20010904//EN"
 "http://www.w3.org/TR/2001/REC-SVG-20010904/DTD/svg10.dtd">
<svg version="1.0" xmlns="http://www.w3.org/2000/svg"
 width="250.000000pt" height="250.000000pt" viewBox="0 0 250.000000 250.000000"
 preserveAspectRatio="xMidYMid meet">
<metadata>
Created by potrace 1.14, written by Peter Selinger 2001-2017
</metadata>
<g transform="translate(0.000000,250.000000) scale(0.100000,-0.100000)"
fill="#000000" stroke="none">
<path d="M1563 2289 c-48 -9 -79 -23 -109 -50 -11 -11 -48 -30 -81 -43 -73
-29 -150 -79 -156 -104 -3 -9 -8 -39 -12 -67 -3 -27 -20 -93 -36 -145 -16 -52
-29 -102 -29 -111 0 -10 -8 -31 -17 -47 -15 -27 -16 -36 -5 -79 7 -26 25 -67
40 -90 27 -41 28 -46 20 -128 -8 -96 -8 -96 -61 -155 -47 -51 -95 -73 -212
-94 -210 -38 -386 -94 -431 -137 -34 -32 -45 -70 -74 -268 -11 -69 -27 -110
-104 -255 -14 -27 -26 -60 -26 -72 0 -32 -18 -77 -36 -91 -9 -6 -21 -35 -28
-64 -12 -56 -13 -56 -98 -93 -45 -19 -51 -37 -41 -126 l8 -65 1165 -3 1165 -2
-5 82 c-5 82 -13 106 -53 160 -19 26 -20 36 -12 190 15 294 13 302 -98 377
-70 47 -125 79 -340 197 -54 30 -112 64 -129 77 -30 22 -108 113 -108 127 0 4
15 27 34 51 52 67 133 205 151 257 9 26 34 83 56 127 44 92 69 182 69 251 0
27 10 72 21 100 29 68 21 112 -28 154 -36 32 -185 110 -210 110 -7 0 -32 6
-55 14 -66 21 -90 24 -135 15z m-523 -1136 c0 -5 -5 -15 -10 -23 -8 -12 -10
-11 -10 8 0 12 5 22 10 22 6 0 10 -3 10 -7z m-123 -55 c-3 -8 -6 -5 -6 6 -1
11 2 17 5 13 3 -3 4 -12 1 -19z"/>
</g>
</svg>
